#N canvas 1089 573 349 409 12;
#X obj 129 134 timer;
#X floatatom 129 161 5 0 0 0 - - -;
#X obj 129 106 t b b;
#X text 169 161 <= period (msec);
#X obj 111 218 /;
#X floatatom 111 245 5 0 0 0 - - -;
#X obj 128 42 inlet;
#X floatatom 111 335 5 0 0 0 - - -;
#X obj 111 307 * 6.28319;
#X obj 111 275 min 1;
#X obj 55 125 metro 20;
#X obj 55 98 bng 15 250 50 0 empty empty empty 17 7 0 10 -262144 -1
-1;
#X obj 55 68 loadbang;
#X obj 23 156 timer;
#X floatatom 23 183 5 0 0 0 - - -;
#X text 63 183 <= time;
#X text 126 15 beat;
#X text 156 333 <= theta;
#X obj 111 366 outlet;
#X connect 0 0 1 0;
#X connect 1 0 4 1;
#X connect 2 0 0 0;
#X connect 2 1 0 1;
#X connect 4 0 5 0;
#X connect 5 0 9 0;
#X connect 6 0 2 0;
#X connect 6 0 13 0;
#X connect 7 0 18 0;
#X connect 8 0 7 0;
#X connect 9 0 8 0;
#X connect 10 0 13 1;
#X connect 11 0 10 0;
#X connect 12 0 11 0;
#X connect 13 0 14 0;
#X connect 14 0 4 0;
