#N canvas 796 75 384 497 10;
#X obj 15 -48 noise~;
#X obj 15 4 hip~ 5000;
#X obj 15 25 hip~ 5000;
#X obj 15 46 lop~ 8000;
#X obj 15 67 lop~ 8000;
#X obj 97 145 *~;
#X obj 185 145 *~;
#X obj 97 246 *~;
#X obj 114 200 +~;
#X obj 97 266 bp~ 6000 7;
#X obj 97 287 hip~ 4000;
#X obj 97 169 *~;
#X obj 97 97 *~ -90;
#X obj 97 73 +~ 1;
#X obj 141 25 lop~ 2;
#X obj 141 1 lop~ 2;
#X obj 97 49 *~ 30;
#X obj 185 49 *~ 10;
#X obj 185 73 +~ 1;
#X obj 185 97 *~ -20;
#X obj 97 121 phasor~;
#X obj 185 121 phasor~;
#X obj 114 224 lop~ 70;
#X obj 249 314 tgl 15 0 empty empty empty 17 7 0 10 -262144 -1 -1 0
1;
#X obj 249 263 bng 15 250 50 0 empty empty empty 17 7 0 10 -262144
-1 -1;
#X obj 249 338 sig~;
#X obj 170 379 *~;
#X obj 258 288 pipe 500;
#X obj 249 -16 inlet;
#X obj 170 407 outlet~;
#X obj 176 205 r start;
#X obj 176 242 random 3000;
#X obj 176 275 + 5000;
#X obj 167 178 loadbang;
#X obj 286 407 outlet;
#X text 239 -41 Vocalise;
#X obj 303 -15 inlet;
#X text 294 -41 Duration;
#X floatatom 303 13 5 0 0 0 - - -;
#X connect 0 0 1 0;
#X connect 0 0 15 0;
#X connect 1 0 2 0;
#X connect 2 0 3 0;
#X connect 3 0 4 0;
#X connect 4 0 7 0;
#X connect 5 0 11 0;
#X connect 5 0 11 1;
#X connect 6 0 8 1;
#X connect 7 0 9 0;
#X connect 8 0 22 0;
#X connect 9 0 10 0;
#X connect 10 0 26 0;
#X connect 11 0 8 0;
#X connect 12 0 20 0;
#X connect 13 0 12 0;
#X connect 14 0 16 0;
#X connect 14 0 17 0;
#X connect 15 0 14 0;
#X connect 16 0 13 0;
#X connect 17 0 18 0;
#X connect 18 0 19 0;
#X connect 19 0 21 0;
#X connect 20 0 5 0;
#X connect 20 0 5 1;
#X connect 21 0 6 0;
#X connect 21 0 6 1;
#X connect 22 0 7 1;
#X connect 23 0 25 0;
#X connect 23 0 34 0;
#X connect 24 0 23 0;
#X connect 24 0 27 0;
#X connect 25 0 26 1;
#X connect 26 0 29 0;
#X connect 27 0 23 0;
#X connect 28 0 24 0;
#X connect 30 0 31 0;
#X connect 31 0 32 0;
#X connect 32 0 9 1;
#X connect 33 0 31 0;
#X connect 36 0 38 0;
#X connect 38 0 27 1;
