#N canvas 345 59 540 765 10;
#X obj 31 287 larynx;
#X msg 47 236 1.5;
#X msg 64 260 1;
#X obj 38 63 bng 15 250 50 0 empty empty empty 17 7 0 10 -262144 -1
-1;
#X obj 166 590 *~;
#X obj 242 13 loadbang;
#X obj 285 42 bng 15 250 50 0 empty empty empty 17 7 0 10 -262144 -1
-1;
#X floatatom 235 104 5 0 0 0 - - -;
#X floatatom 321 102 5 0 0 0 - - -;
#X obj 321 126 + 50;
#X text 60 60 <= vocalise;
#X floatatom 156 341 5 0 0 0 - - -;
#X floatatom 329 341 5 0 0 0 - - -;
#X obj 164 439 +~;
#X obj 156 375 sig~;
#X obj 329 374 sig~;
#X obj 189 375 / 50;
#X obj 361 374 / 80;
#X obj 126 411 vcf~ 125 80;
#X obj 298 411 vcf~ 550 80;
#X obj 298 14 r start;
#X msg 180 7 \; pd dsp 1;
#X obj 321 77 random 50;
#X obj 235 129 + 150;
#X obj 235 77 random 300;
#X obj 37 28 inlet;
#X obj 167 645 outlet~;
#X text 48 483 "au" generator;
#X obj 230 738 outlet;
#X obj 227 643 env~;
#X obj 228 692 > 50;
#X floatatom 227 669 5 0 0 0 - - -;
#X obj 228 715 change;
#X obj 421 27 inlet;
#X text 28 4 Vocalise;
#X text 410 4 Duration;
#X floatatom 421 54 5 0 0 0 - - -;
#X obj 38 109 t b b b;
#X floatatom 100 130 5 0 0 0 - - -;
#X floatatom 100 108 5 0 0 0 - - -;
#X floatatom 100 85 5 0 0 0 - - -;
#X obj 31 185 line;
#X floatatom 31 213 5 0 0 0 - - -;
#X obj 84 156 i;
#X obj 57 156 i;
#X obj 31 156 i;
#X text 137 128 <= start;
#X text 137 85 <= end;
#X text 136 108 <= duration;
#X obj 164 214 bng 15 250 50 0 empty empty empty 17 7 0 10 -262144
-1 -1;
#X obj 164 238 t b b b;
#X floatatom 226 259 5 0 0 0 - - -;
#X floatatom 226 237 5 0 0 0 - - -;
#X floatatom 226 214 5 0 0 0 - - -;
#X obj 157 314 line;
#X obj 210 285 i;
#X obj 183 285 i;
#X obj 157 285 i;
#X text 263 257 <= start;
#X text 263 214 <= end;
#X text 262 237 <= duration;
#X obj 336 212 bng 15 250 50 0 empty empty empty 17 7 0 10 -262144
-1 -1;
#X obj 336 236 t b b b;
#X floatatom 398 257 5 0 0 0 - - -;
#X floatatom 398 235 5 0 0 0 - - -;
#X floatatom 398 212 5 0 0 0 - - -;
#X obj 329 312 line;
#X obj 382 283 i;
#X obj 355 283 i;
#X obj 329 283 i;
#X text 435 255 <= start;
#X text 435 212 <= end;
#X text 434 235 <= duration;
#X msg 190 181 700;
#X msg 226 181 350;
#X msg 362 179 1750;
#X msg 398 179 750;
#X obj 180 473 bng 15 250 50 0 empty empty empty 17 7 0 10 -262144
-1 -1;
#X obj 181 542 sig~;
#X msg 181 517 1;
#X obj 219 494 delay 250;
#X msg 220 517 0;
#X obj 181 566 lop~ 5;
#X obj 167 617 *~ 5;
#X connect 0 0 18 0;
#X connect 0 0 19 0;
#X connect 1 0 0 1;
#X connect 2 0 0 2;
#X connect 3 0 37 0;
#X connect 3 0 49 0;
#X connect 3 0 61 0;
#X connect 3 0 77 0;
#X connect 4 0 83 0;
#X connect 5 0 6 0;
#X connect 5 0 21 0;
#X connect 6 0 1 0;
#X connect 6 0 2 0;
#X connect 6 0 22 0;
#X connect 6 0 24 0;
#X connect 6 0 73 0;
#X connect 6 0 74 0;
#X connect 6 0 75 0;
#X connect 6 0 76 0;
#X connect 6 0 81 0;
#X connect 7 0 23 0;
#X connect 8 0 9 0;
#X connect 9 0 40 0;
#X connect 11 0 14 0;
#X connect 11 0 16 0;
#X connect 12 0 15 0;
#X connect 12 0 17 0;
#X connect 13 0 4 0;
#X connect 14 0 18 1;
#X connect 15 0 19 1;
#X connect 16 0 18 2;
#X connect 17 0 19 2;
#X connect 18 0 13 0;
#X connect 19 0 13 1;
#X connect 20 0 6 0;
#X connect 22 0 8 0;
#X connect 23 0 38 0;
#X connect 24 0 7 0;
#X connect 25 0 3 0;
#X connect 29 0 31 0;
#X connect 30 0 32 0;
#X connect 31 0 30 0;
#X connect 32 0 28 0;
#X connect 33 0 36 0;
#X connect 36 0 39 0;
#X connect 36 0 52 0;
#X connect 36 0 64 0;
#X connect 36 0 80 1;
#X connect 37 0 45 0;
#X connect 37 1 44 0;
#X connect 37 2 43 0;
#X connect 38 0 43 1;
#X connect 39 0 44 1;
#X connect 40 0 45 1;
#X connect 41 0 42 0;
#X connect 42 0 0 0;
#X connect 43 0 41 0;
#X connect 44 0 41 1;
#X connect 45 0 41 0;
#X connect 49 0 50 0;
#X connect 50 0 57 0;
#X connect 50 1 56 0;
#X connect 50 2 55 0;
#X connect 51 0 55 1;
#X connect 52 0 56 1;
#X connect 53 0 57 1;
#X connect 54 0 11 0;
#X connect 55 0 54 0;
#X connect 56 0 54 1;
#X connect 57 0 54 0;
#X connect 61 0 62 0;
#X connect 62 0 69 0;
#X connect 62 1 68 0;
#X connect 62 2 67 0;
#X connect 63 0 67 1;
#X connect 64 0 68 1;
#X connect 65 0 69 1;
#X connect 66 0 12 0;
#X connect 67 0 66 0;
#X connect 68 0 66 1;
#X connect 69 0 66 0;
#X connect 73 0 51 0;
#X connect 74 0 53 0;
#X connect 75 0 63 0;
#X connect 76 0 65 0;
#X connect 77 0 79 0;
#X connect 77 0 80 0;
#X connect 78 0 82 0;
#X connect 79 0 78 0;
#X connect 80 0 81 0;
#X connect 81 0 78 0;
#X connect 82 0 4 1;
#X connect 83 0 26 0;
#X connect 83 0 29 0;
