#N canvas 489 253 897 448 12;
#X obj 40 161 Kuramoto;
#X floatatom 65 128 5 0 0 0 - - -;
#X floatatom 40 217 5 0 0 0 - - -;
#X obj 96 218 hsl 128 15 0 6.28319 0 0 empty empty phase_(0-2pi) -2
-8 0 10 -262144 -1 -1 2968 1;
#X obj 310 159 Kuramoto;
#X floatatom 336 127 5 0 0 0 - - -;
#X floatatom 310 215 5 0 0 0 - - -;
#X obj 366 216 hsl 128 15 0 6.28319 0 0 empty empty phase_(0-2pi) -2
-8 0 10 -262144 -1 -1 7556 1;
#X msg 39 98 1;
#X obj 191 309 t b f;
#X obj 191 342 -;
#X floatatom 191 369 5 0 0 0 - - -;
#X obj 40 245 average 100;
#X floatatom 40 272 5 0 0 0 - - -;
#X obj 310 244 average 100;
#X floatatom 310 271 5 0 0 0 - - -;
#X obj 416 13 loadbang;
#X obj 191 396 average 100;
#X floatatom 191 423 5 0 0 0 - - -;
#X msg 310 97 0.1;
#X obj 67 186 bng 15 250 50 0 empty empty empty 17 7 0 10 -262144 -1
-1;
#X obj 337 183 bng 15 250 50 0 empty empty empty 17 7 0 10 -262144
-1 -1;
#X text 70 98 <= intrinsic frequency (Hz);
#X text 342 98 <= intrinsic frequency (Hz);
#X text 86 184 <= beat;
#X text 355 180 <= beat;
#X text 352 271 <= frequency (Hz);
#X text 84 271 <= frequency (Hz);
#X text 106 128 <= coupling strength (K);
#X text 378 127 <= coupling strength (K);
#X text 234 423 <= phase difference (0-2pi);
#X obj 648 36 beat2phase;
#X obj 596 158 Kuramoto;
#X floatatom 622 126 5 0 0 0 - - -;
#X floatatom 596 214 5 0 0 0 - - -;
#X obj 652 215 hsl 128 15 0 6.28319 0 0 empty empty phase_(0-2pi) -2
-8 0 10 -262144 -1 -1 12277 1;
#X obj 596 243 average 100;
#X floatatom 596 270 5 0 0 0 - - -;
#X obj 623 182 bng 15 250 50 0 empty empty empty 17 7 0 10 -262144
-1 -1;
#X text 628 97 <= intrinsic frequency (Hz);
#X text 641 179 <= beat;
#X text 638 270 <= frequency (Hz);
#X text 664 126 <= coupling strength (K);
#X obj 651 75 hsl 128 15 0 6.28319 0 0 empty empty phase_(0-2pi) -2
-8 0 10 -262144 -1 -1 7554 1;
#X msg 596 96 2;
#X connect 0 0 2 0;
#X connect 0 1 20 0;
#X connect 0 2 3 0;
#X connect 0 2 10 0;
#X connect 0 2 4 2;
#X connect 1 0 0 1;
#X connect 2 0 12 0;
#X connect 4 0 6 0;
#X connect 4 1 21 0;
#X connect 4 2 7 0;
#X connect 4 2 9 0;
#X connect 4 2 0 2;
#X connect 5 0 4 1;
#X connect 6 0 14 0;
#X connect 8 0 0 0;
#X connect 9 0 10 0;
#X connect 9 1 10 1;
#X connect 10 0 11 0;
#X connect 11 0 17 0;
#X connect 12 0 13 0;
#X connect 14 0 15 0;
#X connect 16 0 19 0;
#X connect 16 0 8 0;
#X connect 16 0 44 0;
#X connect 17 0 18 0;
#X connect 19 0 4 0;
#X connect 21 0 31 0;
#X connect 31 0 43 0;
#X connect 32 0 34 0;
#X connect 32 1 38 0;
#X connect 32 2 35 0;
#X connect 33 0 32 1;
#X connect 34 0 36 0;
#X connect 36 0 37 0;
#X connect 43 0 32 2;
#X connect 44 0 32 0;
