#N canvas 1115 179 506 557 12;
#X floatatom 35 84 5 0 0 0 - - -;
#X floatatom 74 113 5 0 0 0 - - -;
#X obj 358 127 t f b;
#X msg 404 155 0;
#X obj 358 220 snapshot~;
#X obj 358 186 phasor~;
#X obj 74 55 inlet;
#X text 86 23 K;
#X obj 35 55 inlet;
#X text 38 25 w_i;
#X floatatom 358 276 5 0 0 0 - - -;
#X obj 280 80 metro 20;
#X obj 280 53 bng 15 250 50 0 empty empty empty 17 7 0 10 -262144 -1
-1;
#X obj 280 23 loadbang;
#X text 401 275 <= theta_i;
#X obj 35 454 expr $f1 + $f2 * sin($f3 - $f4);
#X floatatom 35 485 5 0 0 0 - - -;
#X obj 74 413 t b f;
#X obj 74 84 max 0;
#X obj 145 412 t b f;
#X obj 216 412 t b f;
#X text 77 485 <= dtheta_i/dt (Hz);
#X obj 358 248 * 6.28319;
#X obj 358 513 outlet;
#X obj 35 515 outlet;
#X obj 144 54 inlet;
#X text 138 21 theta_j;
#X msg 202 58 \; pd dsp 1;
#X obj 281 306 t f b;
#X obj 313 341 f;
#X obj 281 367 -;
#X floatatom 281 398 5 0 0 0 - - -;
#X obj 282 425 < 0;
#X obj 282 454 select 1;
#X obj 282 481 bng 15 250 50 0 empty empty empty 17 7 0 10 -262144
-1 -1;
#X obj 282 513 outlet;
#X connect 0 0 2 0;
#X connect 0 0 15 0;
#X connect 1 0 17 0;
#X connect 2 0 5 0;
#X connect 2 1 3 0;
#X connect 3 0 5 1;
#X connect 4 0 22 0;
#X connect 5 0 4 0;
#X connect 6 0 18 0;
#X connect 8 0 0 0;
#X connect 10 0 20 0;
#X connect 10 0 23 0;
#X connect 10 0 28 0;
#X connect 11 0 4 0;
#X connect 12 0 11 0;
#X connect 13 0 12 0;
#X connect 13 0 27 0;
#X connect 15 0 16 0;
#X connect 16 0 5 0;
#X connect 16 0 24 0;
#X connect 17 0 15 0;
#X connect 17 1 15 1;
#X connect 18 0 1 0;
#X connect 19 0 15 0;
#X connect 19 1 15 2;
#X connect 20 0 15 0;
#X connect 20 1 15 3;
#X connect 22 0 10 0;
#X connect 25 0 19 0;
#X connect 28 0 30 0;
#X connect 28 0 29 1;
#X connect 28 1 29 0;
#X connect 29 0 30 1;
#X connect 30 0 31 0;
#X connect 31 0 32 0;
#X connect 32 0 33 0;
#X connect 33 0 34 0;
#X connect 34 0 35 0;
