#N canvas 106 178 1020 602 12;
#X obj 333 -124 vsl 15 140 0 500 0 0 empty SNC empty 0 -9 0 10 -262144
-1 -1 0 1;
#N canvas 0 22 450 300 (subpatch) 0;
#X array sync 1000 float 0;
#X coords 0 500 999 0 500 140 1;
#X restore 352 -124 graph;
#N canvas 659 25 432 386 main 0;
#X obj 126 128 hsl 128 15 500 5000 0 0 PP empty Preferred_Period 5
8 0 10 -262144 -1 -1 1411 1;
#X floatatom 77 126 6 0 0 0 - - -;
#X obj 126 111 hsl 128 15 0 0.001 0 0 Kp2 empty Self-centred 5 8 0
10 -262144 -1 -1 6350 1;
#X floatatom 77 110 6 0 0 0 - - -;
#X obj 126 94 hsl 128 15 0 0.005 0 0 Kp1 empty Other-centred 5 8 0
10 -262144 -1 -1 2540 1;
#X floatatom 77 93 6 0 0 0 - - -;
#X obj 126 77 hsl 128 15 0 1 0 0 ILV empty Interleave 5 8 0 10 -262144
-1 -1 0 1;
#X floatatom 77 76 6 0 0 0 - - -;
#X msg 318 94 0;
#X msg 318 119 0.001;
#X msg 317 144 0.0005;
#X msg 320 173 1000;
#X obj 238 7 bng 15 250 50 0 empty empty empty 17 7 0 10 -262144 -1
-1;
#X obj 274 4 loadbang;
#X obj 7 71 vradio 15 1 0 5 VT empty empty 0 -8 0 10 -262144 -1 -1
0;
#X text 31 69 beep;
#X text 29 113 cicada;
#X text 30 131 bird;
#X text 29 85 "oi";
#X text 29 99 "au";
#X obj 7 7 bng 15 250 50 0 empty empty empty 17 7 0 10 -4034 -1 -1
;
#X text 26 3 <= Start All;
#X obj 7 23 bng 15 250 50 0 empty empty empty 17 7 0 10 -258113 -1
-1;
#X text 26 19 <= Stop All;
#X msg 131 213 1;
#X obj 131 241 s STSP;
#X obj 132 300 s STSP;
#X msg 132 272 0;
#X obj 7 39 bng 15 250 50 0 empty empty empty 17 7 0 10 -262144 -1
-1;
#N canvas 736 90 500 292 graphs 0;
#X obj 192 29 loadbang;
#X obj 193 63 bng 15 250 50 0 empty empty empty 17 7 0 10 -262144 -1
-1;
#X msg 140 77 stop;
#X obj 199 145 + 1;
#X obj 161 145 int;
#X floatatom 161 177 5 0 0 0 - - -;
#X obj 160 122 bng 15 250 50 0 empty empty empty 17 7 0 10 -262144
-1 -1;
#X msg 123 119 0;
#X obj 9 222 tabwrite beats;
#X obj 161 204 t b f;
#X msg 50 192 0;
#X obj 9 160 r beat;
#X msg 9 192 0.8;
#X obj 194 95 metro 10;
#X obj 363 74 r err;
#X obj 365 136 +;
#X floatatom 365 169 5 0 0 0 - - -;
#X obj 365 227 tabwrite sync;
#X text 212 59 <= start graphs;
#X msg 324 110 0;
#X obj 365 196 min 500;
#X obj 364 108 * 0.01;
#X obj 403 137 * 0.99;
#X obj 100 12 r STSP;
#X obj 101 41 route 0 1;
#X obj 413 167 s SNC;
#X obj 265 26 inlet;
#X obj 236 144 wrap 1000;
#X connect 0 0 1 0;
#X connect 1 0 13 0;
#X connect 2 0 7 0;
#X connect 2 0 13 0;
#X connect 3 0 27 0;
#X connect 4 0 3 0;
#X connect 4 0 5 0;
#X connect 5 0 9 0;
#X connect 6 0 4 0;
#X connect 7 0 4 0;
#X connect 9 0 10 0;
#X connect 9 0 16 0;
#X connect 9 1 8 1;
#X connect 9 1 17 1;
#X connect 10 0 8 0;
#X connect 11 0 12 0;
#X connect 12 0 8 0;
#X connect 13 0 6 0;
#X connect 14 0 21 0;
#X connect 15 0 16 0;
#X connect 15 0 22 0;
#X connect 16 0 20 0;
#X connect 16 0 25 0;
#X connect 19 0 15 1;
#X connect 20 0 17 0;
#X connect 21 0 15 0;
#X connect 22 0 15 1;
#X connect 23 0 24 0;
#X connect 24 0 19 0;
#X connect 24 0 2 0;
#X connect 24 1 1 0;
#X connect 24 1 19 0;
#X connect 24 1 7 0;
#X connect 26 0 1 0;
#X connect 27 0 4 1;
#X restore 10 181 pd graphs;
#X text 26 36 <= Graphs;
#X obj 126 145 hsl 128 15 0 1 0 0 AMP empty Amplitude 5 8 0 10 -262144
-1 -1 6350 1;
#X floatatom 77 144 6 0 0 0 - - -;
#X obj 126 60 hsl 128 15 10 1000 0 0 DUR empty Duration 5 8 0 10 -262144
-1 -1 3079 1;
#X floatatom 77 59 6 0 0 0 - - -;
#X text 139 5 Initialise =>;
#X msg 318 53 250;
#X msg 322 202 0.5;
#X obj 18 294 timer;
#X floatatom 124 30 5 0 0 0 - - -;
#X obj 50 267 metro 100;
#X obj 19 242 bng 15 250 50 0 empty empty empty 17 7 0 10 -262144 -1
-1;
#X msg 50 236 stop;
#X msg 307 274 \; beats const 0;
#X msg 308 231 \; sync const 0;
#X msg 226 252 \; pd dsp 1;
#X text 110 30 T;
#X obj 18 326 / 1000;
#X obj 363 92 s MEAS;
#X obj 363 172 s IPP;
#X obj 209 32 hradio 15 1 0 3 SR empty empty 0 -8 0 10 -262144 -1 -1
0;
#X text 169 30 S-K-F;
#X connect 0 0 1 0;
#X connect 2 0 3 0;
#X connect 4 0 5 0;
#X connect 6 0 7 0;
#X connect 8 0 6 0;
#X connect 8 0 14 0;
#X connect 8 0 39 0;
#X connect 8 0 48 0;
#X connect 8 0 50 0;
#X connect 9 0 4 0;
#X connect 10 0 2 0;
#X connect 11 0 0 0;
#X connect 11 0 49 0;
#X connect 12 0 8 0;
#X connect 12 0 9 0;
#X connect 12 0 10 0;
#X connect 12 0 11 0;
#X connect 12 0 36 0;
#X connect 12 0 37 0;
#X connect 12 0 44 0;
#X connect 12 0 43 0;
#X connect 12 0 45 0;
#X connect 13 0 12 0;
#X connect 20 0 24 0;
#X connect 22 0 27 0;
#X connect 24 0 25 0;
#X connect 24 0 41 0;
#X connect 27 0 26 0;
#X connect 27 0 42 0;
#X connect 28 0 29 0;
#X connect 31 0 32 0;
#X connect 33 0 34 0;
#X connect 36 0 33 0;
#X connect 37 0 31 0;
#X connect 38 0 47 0;
#X connect 40 0 38 1;
#X connect 41 0 38 0;
#X connect 41 0 40 0;
#X connect 42 0 40 0;
#X connect 47 0 39 0;
#X coords 0 -1 1 1 260 170 2 0 0;
#X restore -148 -137 pd main;
#X floatatom 325 24 5 0 0 0 - SNC -;
#N canvas 676 53 758 641 Measure 0;
#X floatatom 383 587 5 0 0 0 - - -;
#X obj 382 4 inlet;
#X obj 438 4 inlet;
#X obj 383 555 MeanVar;
#X msg 437 527 clear;
#X floatatom 382 526 5 0 0 0 - - -;
#X floatatom 429 587 5 0 0 0 - - -;
#X obj 382 35 bng 15 250 50 0 empty empty empty 17 7 0 10 -262144 -1
-1;
#X obj 438 35 bng 15 250 50 0 empty empty empty 17 7 0 10 -262144 -1
-1;
#X obj 382 63 timer;
#X obj 438 64 timer;
#X obj 382 488 spigot;
#X obj 421 432 tgl 15 0 empty empty empty 17 7 0 10 -262144 -1 -1 0
1;
#X floatatom 109 52 5 0 0 0 - - -;
#X floatatom 109 77 5 0 0 0 - - -;
#X obj 6 9 tgl 15 0 empty MEAS empty 17 7 0 10 -262144 -1 -1 0 1;
#X text 26 7 On/Off;
#X obj 118 342 loadbang;
#X msg 118 373 0;
#X obj 437 489 route 1;
#X obj 31 218 bng 15 250 50 0 empty empty empty 17 7 0 10 -262144 -1
-1;
#X floatatom 31 274 5 0 0 0 - - -;
#X obj 31 245 i;
#X obj 63 246 + 1;
#X msg 55 216 0;
#X floatatom 157 8 5 0 0 0 - - -;
#X obj 31 304 == 100;
#X obj 31 331 route 1;
#X obj 214 89 timer;
#X obj 214 64 t b b;
#X floatatom 214 113 5 0 0 0 - - -;
#X obj 576 88 timer;
#X obj 576 63 t b b;
#X floatatom 576 112 5 0 0 0 - - -;
#X floatatom 577 294 5 0 0 0 - - -;
#X obj 577 262 MeanVar;
#X msg 648 234 clear;
#X floatatom 576 233 5 0 0 0 - - -;
#X floatatom 623 294 5 0 0 0 - - -;
#X obj 576 195 spigot;
#X obj 615 139 tgl 15 0 empty empty empty 17 7 0 10 -262144 -1 -1 0
1;
#X obj 648 196 route 1;
#X floatatom 215 291 5 0 0 0 - - -;
#X obj 215 259 MeanVar;
#X msg 269 231 clear;
#X floatatom 214 230 5 0 0 0 - - -;
#X floatatom 261 291 5 0 0 0 - - -;
#X obj 214 192 spigot;
#X obj 250 140 tgl 15 0 empty empty empty 17 7 0 10 -262144 -1 -1 0
1;
#X obj 269 191 route 1;
#X floatatom 66 52 5 0 0 0 - - -;
#X floatatom 66 77 5 0 0 0 - - -;
#X floatatom 153 52 5 0 0 0 - - -;
#X floatatom 153 77 5 0 0 0 - - -;
#X obj 616 164 t f f;
#X obj 251 163 t f f;
#X obj 421 458 t f f;
#X floatatom 382 108 5 0 0 0 - - -;
#X floatatom 438 109 5 0 0 0 - - -;
#X obj 438 139 t b f;
#X obj 438 173 min;
#X floatatom 438 203 5 0 0 0 - - -;
#X text 330 107 lag =>;
#X text 477 108 <= lead;
#X floatatom 382 203 5 0 0 0 - - -;
#X obj 382 173 <;
#X obj 412 285 * -1;
#X obj 382 229 pack;
#X obj 382 257 route 0 1;
#X floatatom 382 317 5 0 0 0 - - -;
#X obj 382 349 moses 250;
#X obj 382 379 moses -250;
#X floatatom 382 405 5 0 0 0 - - -;
#X obj 261 2 inlet~;
#X obj 261 29 fiddle~;
#X obj 498 4 inlet~;
#X obj 498 31 fiddle~;
#X text 1 51 Means =>;
#X text 8 75 Vars =>;
#X text 79 7 Samples =>;
#X text 66 30 A-1 Diff A-2;
#X connect 0 0 13 0;
#X connect 1 0 7 0;
#X connect 2 0 8 0;
#X connect 3 0 0 0;
#X connect 3 1 6 0;
#X connect 4 0 3 0;
#X connect 4 0 24 0;
#X connect 5 0 3 0;
#X connect 5 0 20 0;
#X connect 6 0 14 0;
#X connect 7 0 9 0;
#X connect 7 0 10 1;
#X connect 7 0 29 0;
#X connect 8 0 10 0;
#X connect 8 0 9 1;
#X connect 8 0 32 0;
#X connect 9 0 57 0;
#X connect 10 0 58 0;
#X connect 11 0 5 0;
#X connect 12 0 56 0;
#X connect 15 0 12 0;
#X connect 15 0 40 0;
#X connect 15 0 48 0;
#X connect 17 0 18 0;
#X connect 18 0 15 0;
#X connect 18 0 30 0;
#X connect 18 0 33 0;
#X connect 18 0 57 0;
#X connect 18 0 58 0;
#X connect 19 0 4 0;
#X connect 20 0 22 0;
#X connect 21 0 25 0;
#X connect 21 0 26 0;
#X connect 22 0 21 0;
#X connect 22 0 23 0;
#X connect 23 0 22 1;
#X connect 24 0 22 0;
#X connect 26 0 27 0;
#X connect 27 0 18 0;
#X connect 28 0 30 0;
#X connect 29 0 28 0;
#X connect 29 1 28 1;
#X connect 30 0 47 0;
#X connect 31 0 33 0;
#X connect 32 0 31 0;
#X connect 32 1 31 1;
#X connect 33 0 39 0;
#X connect 34 0 52 0;
#X connect 35 0 34 0;
#X connect 35 1 38 0;
#X connect 36 0 35 0;
#X connect 37 0 35 0;
#X connect 38 0 53 0;
#X connect 39 0 37 0;
#X connect 40 0 54 0;
#X connect 41 0 36 0;
#X connect 42 0 50 0;
#X connect 43 0 42 0;
#X connect 43 1 46 0;
#X connect 44 0 43 0;
#X connect 45 0 43 0;
#X connect 46 0 51 0;
#X connect 47 0 45 0;
#X connect 48 0 55 0;
#X connect 49 0 44 0;
#X connect 54 0 39 1;
#X connect 54 1 41 0;
#X connect 55 0 47 1;
#X connect 55 1 49 0;
#X connect 56 0 11 1;
#X connect 56 1 19 0;
#X connect 57 0 60 0;
#X connect 57 0 65 0;
#X connect 58 0 59 0;
#X connect 59 0 60 0;
#X connect 59 0 65 0;
#X connect 59 1 60 1;
#X connect 59 1 65 1;
#X connect 60 0 61 0;
#X connect 61 0 67 1;
#X connect 64 0 67 0;
#X connect 65 0 64 0;
#X connect 66 0 69 0;
#X connect 67 0 68 0;
#X connect 68 0 69 0;
#X connect 68 1 66 0;
#X connect 69 0 70 0;
#X connect 70 0 71 0;
#X connect 71 1 72 0;
#X connect 72 0 11 0;
#X connect 73 0 74 0;
#X connect 74 1 7 0;
#X connect 75 0 76 0;
#X connect 76 1 8 0;
#X coords 0 -1 1 1 200 110 2 0 0;
#X restore 122 -107 pd Measure;
#X obj 75 150 sync-agent;
#N canvas 0 22 450 300 (subpatch) 0;
#X array beats 1000 float 0;
#X coords 0 1 999 0 1000 50 1;
#X restore -146 55 graph;
#X obj -91 167 PlayWav~;
