#N canvas 686 121 1058 654 10;
#X obj 306 316 int;
#X obj 359 316 + 1;
#X floatatom 359 340 5 0 0 0 - - -;
#X obj 141 249 bng 15 250 50 0 empty empty empty 17 7 0 10 -262144
-1 -1;
#X msg 306 287 0;
#X obj 359 363 >;
#X obj 359 388 select 1;
#X obj 450 203 bng 15 250 50 0 empty empty empty 17 7 0 10 -262144
-1 -1;
#X msg 401 131 stop;
#X obj 76 284 timer;
#X floatatom 76 315 5 0 0 0 - - -;
#X obj 141 284 timer;
#X floatatom 141 315 5 0 0 0 - - -;
#X obj 76 249 bng 15 250 50 0 empty empty empty 17 7 0 10 -262144 -1
-1;
#X obj 76 512 +;
#X floatatom 123 512 5 0 0 0 - - -;
#X msg 339 286 0;
#X obj 76 343 spigot;
#X floatatom 76 373 5 0 0 0 - - -;
#X obj 141 343 spigot;
#X floatatom 141 373 5 0 0 0 - - -;
#X floatatom 76 438 5 0 0 0 - - -;
#X obj 115 319 tgl 15 0 empty empty empty 17 7 0 10 -262144 -1 -1 0
1;
#X obj 180 317 tgl 15 0 empty empty empty 17 7 0 10 -262144 -1 -1 0
1;
#X obj 173 248 metro 1;
#X obj 274 20 inlet;
#X obj 651 477 delay;
#X obj 678 451 *;
#X obj 651 503 bng 15 250 50 0 empty empty empty 17 7 0 10 -262144
-1 -1;
#X obj 651 556 outlet;
#X obj 359 412 bng 15 250 50 0 empty empty empty 17 7 0 10 -262144
-1 -1;
#X obj 678 372 loadbang;
#X msg 678 398 0;
#X floatatom 64 545 5 0 0 0 - - -;
#X obj 661 530 s beat;
#X obj 328 485 t b f;
#X obj 450 106 random 500;
#X floatatom 450 131 5 0 0 0 - - -;
#X obj 450 178 delay;
#X obj 450 155 t b f;
#X obj -191 559 outlet~;
#X obj -137 68 fiddle~;
#X obj -159 34 inlet~;
#X msg 400 164 0;
#X obj -108 300 env~;
#X floatatom -108 353 5 0 0 0 - - -;
#X obj -166 303 env~;
#X floatatom -165 356 5 0 0 0 - - -;
#X obj -137 395 /;
#X floatatom -137 424 5 0 0 0 - - -;
#X obj -1 407 bng 15 250 50 0 empty empty empty 17 7 0 10 -262144 -1
-1;
#X floatatom 64 595 5 0 0 0 - - -;
#X obj -1 456 f;
#X obj 329 537 abs;
#X floatatom 329 560 5 0 0 0 - - -;
#X obj 75 485 spigot;
#X obj 107 462 tgl 15 0 empty empty empty 17 7 0 10 -262144 -1 -1 0
1;
#X text 98 545 <= preferred period;
#X obj -1 432 metro 1;
#X obj 76 406 pid-controller 0.001 0 0;
#X obj 478 545 spigot;
#X obj 511 522 tgl 15 0 empty empty empty 17 7 0 10 -262144 -1 -1 0
1;
#X obj 329 586 < 10000;
#X obj 329 512 -;
#X obj 478 478 abs;
#X floatatom 478 501 5 0 0 0 - - -;
#X obj 477 450 min;
#X obj 675 185 tgl 15 0 empty empty empty 17 7 0 10 -262144 -1 -1 1
1;
#X obj 642 208 spigot;
#X obj 678 426 t b f;
#X msg 21 405 stop;
#X obj 14 4 tgl 15 0 empty STSP empty 17 7 0 10 -4034 -1 -1 0 1;
#X obj 401 82 route 0 1;
#X obj 64 570 pid-controller 0.0001 0 0;
#X obj 51 113 hsl 128 15 500 5000 0 0 empty PP Preferred_Period 20
8 0 10 -262144 -1 -1 1400 1;
#X floatatom 6 112 6 0 0 0 - - -;
#X obj 51 96 hsl 128 15 0 0.001 0 0 empty Kp2 Self-Centred 25 8 0 10
-262144 -1 -1 6350 1;
#X floatatom 6 96 6 0 0 0 - - -;
#X obj 51 79 hsl 128 15 0 0.005 0 0 empty Kp1 Other-Centred 23 8 0
10 -262144 -1 -1 5900 1;
#X floatatom 6 79 6 0 0 0 - - -;
#X obj 51 62 hsl 128 15 0 1 0 0 empty ILV Interleave 35 8 0 10 -262144
-1 -1 0 1;
#X floatatom 6 62 6 0 0 0 - - -;
#X obj -192 274 vocalise;
#X obj 102 4 hradio 15 1 0 5 empty VT empty 0 -8 0 10 -262144 -1 -1
0;
#X obj 183 3 bng 15 250 50 0 empty empty empty 17 7 0 10 -262144 -1
-1;
#X obj 185 146 bng 15 250 50 0 empty empty empty 17 7 0 10 -262144
-1 -1;
#X floatatom 153 25 5 0 0 0 - - -;
#X obj -165 331 max 1;
#X obj -108 328 max 1;
#X text -65 327 <= avoid /0;
#X obj -97 423 tgl 15 0 empty empty empty 17 7 0 10 -262144 -1 -1 0
1;
#X obj -136 450 spigot;
#X obj -136 502 +;
#X obj 51 45 hsl 128 15 10 1000 0 0 empty DUR Duration 40 8 0 10 -262144
-1 -1 3079 1;
#X floatatom 6 45 6 0 0 0 - - -;
#X obj 51 130 hsl 128 15 0 1 0 0 empty AMP Amplitude 35 8 0 10 -262144
-1 -1 6350 1;
#X floatatom 6 130 6 0 0 0 - - -;
#X floatatom -136 526 5 0 0 0 - - -;
#X text -99 525 <= SNR;
#X floatatom 15 25 5 0 0 0 - - -;
#X text 130 25 SNR;
#X text 4 25 P;
#X floatatom 81 25 5 0 0 0 - - -;
#X text 70 25 E;
#X obj 479 617 s err;
#X obj 479 591 f;
#X obj -136 478 * 0.1;
#X obj -105 502 * 0.9;
#X obj 526 545 route 0 1;
#X msg 526 567 0;
#X obj -49 27 / 1000;
#X obj 518 267 tgl 15 0 empty empty empty 17 7 0 10 -262144 -1 -1 0
1;
#X obj 485 294 spigot;
#X obj 51 147 hsl 128 15 1 0 0 0 empty empty Left-Right 35 8 0 10 -262144
-1 -1 0 1;
#X floatatom 6 147 6 0 0 0 - - -;
#X text 251 1 SENSORY INPUT;
#X text -172 9 AUDIO INPUT;
#X text 627 579 ACTUATOR OUTPUT;
#X text -195 582 AUDIO OUTPUT;
#X text 364 58 stop/start timers/metros;
#X text 618 348 delay beat by 0 ms <> period;
#X text 70 221 other;
#X text 130 220 self;
#X text 322 264 MOTOR;
#X text 379 413 <= BEAT;
#X text 160 511 <= PERIOD;
#X text 115 439 ERROR = +LEAD or -LAG;
#X text 296 607 cap the difference;
#X obj 455 395 timer;
#X obj 497 395 timer;
#X obj 496 426 t b f;
#X obj 455 356 bng 15 250 50 0 empty empty empty 17 7 0 10 -262144
-1 -1;
#X obj 497 357 bng 15 250 50 0 empty empty empty 17 7 0 10 -262144
-1 -1;
#X obj 135 483 r IPP;
#X obj 45 4 hradio 15 1 0 3 empty SR empty 0 -8 0 10 -262144 -1 -1
0;
#X obj 675 162 == 0;
#X obj 518 240 == 2;
#X text 697 185 <= Stimulus-Response;
#X text 539 265 <= Feedback Control;
#X obj 773 412 tgl 15 0 empty empty empty 17 7 0 10 -262144 -1 -1 0
1;
#X obj 740 435 spigot;
#X obj 773 389 == 1;
#X text 795 412 <= Kuramoto;
#X obj 824 311 Kuramoto;
#X floatatom 846 243 5 0 0 0 - - -;
#X floatatom 824 367 5 0 0 0 - - -;
#X obj 875 368 hsl 128 15 0 6.28319 0 0 empty empty phase_(0-2pi) -2
-8 0 10 -262144 -1 -1 440 1;
#X obj 846 336 bng 15 250 50 0 empty empty empty 17 7 0 10 -262144
-1 -1;
#X obj 869 267 bng 15 250 50 0 empty empty empty 17 7 0 10 -262144
-1 -1;
#X text 859 215 <= intrinsic frequency (Hz);
#X text 888 267 <= beat;
#X text 865 334 <= beat;
#X text 886 242 <= coupling strength (K);
#X floatatom 824 217 5 0 0 0 - - -;
#X obj 824 127 swap 1000;
#X obj 824 156 /;
#X obj 845 188 * 2000;
#X obj 869 288 beat2phase;
#X connect 0 0 1 0;
#X connect 1 0 0 1;
#X connect 1 0 2 0;
#X connect 2 0 5 0;
#X connect 3 0 11 0;
#X connect 3 0 23 0;
#X connect 3 0 22 0;
#X connect 3 0 132 0;
#X connect 4 0 0 0;
#X connect 5 0 6 0;
#X connect 6 0 30 0;
#X connect 7 0 4 0;
#X connect 7 0 24 0;
#X connect 7 0 13 0;
#X connect 7 0 3 0;
#X connect 7 0 50 0;
#X connect 8 0 24 0;
#X connect 8 0 43 0;
#X connect 8 0 70 0;
#X connect 9 0 10 0;
#X connect 10 0 17 0;
#X connect 11 0 12 0;
#X connect 12 0 19 0;
#X connect 13 0 22 0;
#X connect 13 0 23 0;
#X connect 13 0 9 0;
#X connect 13 0 68 0;
#X connect 13 0 131 0;
#X connect 13 0 148 0;
#X connect 14 0 15 0;
#X connect 15 0 14 1;
#X connect 15 0 5 1;
#X connect 15 0 27 0;
#X connect 15 0 73 1;
#X connect 15 0 110 0;
#X connect 16 0 0 1;
#X connect 17 0 18 0;
#X connect 18 0 59 0;
#X connect 18 0 63 0;
#X connect 19 0 20 0;
#X connect 20 0 35 0;
#X connect 20 0 59 1;
#X connect 21 0 55 0;
#X connect 22 0 17 1;
#X connect 23 0 19 1;
#X connect 24 0 9 1;
#X connect 24 0 11 1;
#X connect 24 0 0 0;
#X connect 24 0 65 0;
#X connect 25 0 84 0;
#X connect 26 0 28 0;
#X connect 27 0 26 1;
#X connect 28 0 29 0;
#X connect 28 0 34 0;
#X connect 28 0 82 0;
#X connect 28 0 85 0;
#X connect 30 0 16 0;
#X connect 30 0 112 0;
#X connect 30 0 3 0;
#X connect 31 0 32 0;
#X connect 32 0 69 0;
#X connect 32 0 92 0;
#X connect 32 0 134 0;
#X connect 33 0 73 0;
#X connect 35 0 63 0;
#X connect 35 1 63 1;
#X connect 36 0 37 0;
#X connect 37 0 39 0;
#X connect 38 0 7 0;
#X connect 39 0 38 0;
#X connect 39 1 38 1;
#X connect 41 1 13 0;
#X connect 42 0 44 0;
#X connect 42 0 41 0;
#X connect 43 0 10 0;
#X connect 43 0 12 0;
#X connect 43 0 105 0;
#X connect 44 0 88 0;
#X connect 45 0 48 1;
#X connect 46 0 87 0;
#X connect 47 0 48 0;
#X connect 48 0 49 0;
#X connect 49 0 91 0;
#X connect 50 0 58 0;
#X connect 51 0 52 1;
#X connect 52 0 14 0;
#X connect 53 0 54 0;
#X connect 54 0 62 0;
#X connect 55 0 14 0;
#X connect 56 0 55 1;
#X connect 58 0 52 0;
#X connect 59 0 21 0;
#X connect 60 0 105 0;
#X connect 61 0 60 1;
#X connect 61 0 108 0;
#X connect 62 0 56 0;
#X connect 62 0 61 0;
#X connect 63 0 53 0;
#X connect 64 0 65 0;
#X connect 65 0 60 0;
#X connect 66 0 64 0;
#X connect 67 0 68 1;
#X connect 68 0 26 0;
#X connect 69 0 27 0;
#X connect 69 1 27 1;
#X connect 70 0 58 0;
#X connect 71 0 72 0;
#X connect 72 0 8 0;
#X connect 72 1 36 0;
#X connect 73 0 51 0;
#X connect 74 0 75 0;
#X connect 75 0 33 0;
#X connect 75 0 154 0;
#X connect 76 0 77 0;
#X connect 77 0 73 2;
#X connect 78 0 79 0;
#X connect 79 0 59 2;
#X connect 79 0 156 0;
#X connect 80 0 81 0;
#X connect 81 0 69 0;
#X connect 82 0 46 0;
#X connect 82 0 40 0;
#X connect 82 1 90 0;
#X connect 83 0 82 1;
#X connect 84 0 13 0;
#X connect 87 0 47 0;
#X connect 88 0 45 0;
#X connect 90 0 91 1;
#X connect 91 0 106 0;
#X connect 92 0 97 0;
#X connect 92 0 107 0;
#X connect 93 0 94 0;
#X connect 94 0 82 3;
#X connect 95 0 96 0;
#X connect 96 0 82 2;
#X connect 97 0 86 0;
#X connect 105 0 102 0;
#X connect 105 0 104 0;
#X connect 106 0 92 0;
#X connect 107 0 92 1;
#X connect 108 0 109 0;
#X connect 109 0 105 0;
#X connect 110 0 99 0;
#X connect 111 0 112 1;
#X connect 112 0 26 0;
#X connect 113 0 114 0;
#X connect 114 0 82 4;
#X connect 128 0 66 0;
#X connect 129 0 130 0;
#X connect 130 0 66 0;
#X connect 130 1 66 1;
#X connect 131 0 128 0;
#X connect 131 0 129 1;
#X connect 132 0 129 0;
#X connect 132 0 128 1;
#X connect 133 0 15 0;
#X connect 134 0 135 0;
#X connect 134 0 136 0;
#X connect 134 0 141 0;
#X connect 135 0 67 0;
#X connect 136 0 111 0;
#X connect 139 0 140 1;
#X connect 140 0 26 0;
#X connect 141 0 139 0;
#X connect 143 0 145 0;
#X connect 143 1 147 0;
#X connect 143 2 146 0;
#X connect 144 0 143 1;
#X connect 147 0 140 0;
#X connect 148 0 157 0;
#X connect 153 0 143 0;
#X connect 154 0 155 0;
#X connect 154 1 155 1;
#X connect 155 0 153 0;
#X connect 156 0 144 0;
#X connect 157 0 143 2;
#X coords 0 -1 1 1 200 170 2 0 0;
