#N canvas 24 35 579 606 10;
#X obj 23 30 inlet;
#X obj 303 563 dac~;
#X text 19 3 Vocalise;
#X obj 76 72 hradio 15 1 0 5 empty empty empty 0 -8 0 10 -262144 -1
-1 0;
#X obj 52 155 bng 15 250 50 0 empty empty empty 17 7 0 10 -262144 -1
-1;
#X obj 70 155 bng 15 250 50 0 empty empty empty 17 7 0 10 -262144 -1
-1;
#X obj 52 72 bng 15 250 50 0 empty empty empty 17 7 0 10 -262144 -1
-1;
#X obj 52 97 i;
#X obj 107 155 bng 15 250 50 0 empty empty empty 17 7 0 10 -262144
-1 -1;
#X obj 124 333 +~;
#X obj 52 298 beep;
#X obj 107 206 cicada;
#X obj 123 449 outlet~;
#X obj 70 259 human1;
#X obj 89 155 bng 15 250 50 0 empty empty empty 17 7 0 10 -262144 -1
-1;
#X obj 89 233 human2;
#X obj 52 126 select 0 1 2 3 4;
#X obj 126 154 bng 15 250 50 0 empty empty empty 17 7 0 10 -262144
-1 -1;
#X obj 126 180 birdy;
#X obj 253 159 s start;
#X obj 253 135 bng 15 250 50 0 empty empty empty 17 7 0 10 -262144
-1 -1;
#X obj 76 30 inlet;
#X obj 245 434 outlet;
#X obj 245 412 tgl 15 0 empty empty empty 17 7 0 10 -262144 -1 -1 1
1;
#X obj 138 357 sig~;
#X obj 138 381 lop~ 1;
#X obj 123 406 *~;
#X obj 177 29 inlet;
#X text 168 8 Amplitude;
#X obj 255 31 inlet;
#X text 251 7 Duration;
#X floatatom 255 56 5 0 0 0 - - -;
#X floatatom 177 57 5 0 0 0 - - -;
#X msg 219 159 1;
#X msg 218 187 500;
#X text 240 113 Init Test;
#X text 224 455 1 = vocalising;
#X obj 356 266 loadbang;
#X obj 356 329 bng 15 250 50 0 empty empty empty 17 7 0 10 -262144
-1 -1;
#X obj 365 299 r start;
#X floatatom 358 407 5 0 0 0 - - -;
#X obj 357 356 random 1000;
#X obj 358 382 / 1000;
#X obj 358 432 swap 1;
#X obj 358 458 -;
#X floatatom 358 485 5 0 0 0 - - -;
#X obj 318 433 sig~;
#X obj 358 510 sig~;
#X obj 303 538 *~;
#X obj 343 538 *~;
#X obj 473 29 inlet;
#X text 335 239 Randmise Right-Left;
#X text 461 6 Left-Right;
#X connect 0 0 6 0;
#X connect 3 0 7 1;
#X connect 4 0 10 0;
#X connect 5 0 13 0;
#X connect 6 0 7 0;
#X connect 7 0 16 0;
#X connect 8 0 11 0;
#X connect 9 0 26 0;
#X connect 10 0 9 0;
#X connect 10 1 23 0;
#X connect 11 0 9 0;
#X connect 11 1 23 0;
#X connect 13 0 9 0;
#X connect 13 1 23 0;
#X connect 14 0 15 0;
#X connect 15 0 9 0;
#X connect 15 1 23 0;
#X connect 16 0 4 0;
#X connect 16 1 5 0;
#X connect 16 2 14 0;
#X connect 16 3 8 0;
#X connect 16 4 17 0;
#X connect 17 0 18 0;
#X connect 18 0 9 0;
#X connect 18 1 23 0;
#X connect 20 0 19 0;
#X connect 20 0 33 0;
#X connect 20 0 34 0;
#X connect 21 0 3 0;
#X connect 23 0 22 0;
#X connect 24 0 25 0;
#X connect 25 0 26 1;
#X connect 26 0 12 0;
#X connect 26 0 49 0;
#X connect 26 0 48 0;
#X connect 27 0 32 0;
#X connect 29 0 31 0;
#X connect 31 0 10 1;
#X connect 31 0 11 1;
#X connect 31 0 18 1;
#X connect 31 0 15 1;
#X connect 31 0 13 1;
#X connect 32 0 24 0;
#X connect 33 0 32 0;
#X connect 34 0 31 0;
#X connect 37 0 38 0;
#X connect 38 0 41 0;
#X connect 39 0 38 0;
#X connect 40 0 43 0;
#X connect 40 0 46 0;
#X connect 41 0 42 0;
#X connect 42 0 40 0;
#X connect 43 0 44 0;
#X connect 43 1 44 1;
#X connect 44 0 45 0;
#X connect 45 0 47 0;
#X connect 46 0 48 1;
#X connect 47 0 49 1;
#X connect 48 0 1 0;
#X connect 49 0 1 1;
#X connect 50 0 40 0;
